<?xml version="1.0" ?><!DOCTYPE svg  PUBLIC '-//W3C//DTD SVG 1.1//EN'  'http://www.w3.org/Graphics/SVG/1.1/DTD/svg11.dtd'><svg height="8.4666mm" style="shape-rendering:geometricPrecision; text-rendering:geometricPrecision; image-rendering:optimizeQuality; fill-rule:evenodd; clip-rule:evenodd" version="1.1" viewBox="0 0 846.66 846.66" width="8.4666mm" xmlSpace="preserve" xmlns="http://www.w3.org/2000/svg" xmlnsXlink="http://www.w3.org/1999/xlink"><defs><style type="text/css">
   <![CDATA[
    .fil0 {fill:black;fill-rule:nonzero}
   ]]>
  </style></defs><g id="Layer_x0020_1"><path class="fil0" d="M210.29 10.37l576.77 0c11.4,0 20.65,9.25 20.65,20.65l0 784.62c0,11.4 -9.25,20.65 -20.65,20.65l-727.46 0c-11.4,0 -20.65,-9.25 -20.65,-20.65l0 -631.34c0.06,-6.09 2.49,-11.45 7.04,-15.51l148.55 -151.13c3.79,-4.46 9.44,-7.29 15.75,-7.29zm-130.05 699.52l686.18 0 0 -658.23 -535.49 0 0 132.64c0,11.4 -9.24,20.65 -20.64,20.65l-130.05 0 0 504.94zm686.18 41.29l-686.18 0 0 43.82 686.18 0 0 -43.82zm-490.21 -416.44c37.47,0 68.07,30.59 68.07,68.06 0,12.62 -3.48,24.46 -9.52,34.62 15.32,8.37 28.76,19.97 39.29,33.88 11.75,-18.17 18.57,-39.83 18.57,-63.08 0,-64.3 -52.12,-116.41 -116.41,-116.41 -64.29,0 -116.4,52.12 -116.4,116.41 0,23.24 6.82,44.9 18.56,63.08 10.53,-13.91 23.98,-25.51 39.29,-33.88 -6.04,-10.16 -9.51,-22 -9.51,-34.62 0,-37.47 30.59,-68.06 68.06,-68.06zm22.78 132.19c-7.13,2.55 -14.8,3.94 -22.78,3.94 -7.98,0 -15.64,-1.39 -22.77,-3.94 -19.24,5.57 -35.66,18.05 -46.26,35.02 19.32,14.24 43.19,22.67 69.03,22.67 25.85,0 49.72,-8.43 69.03,-22.67 -10.59,-16.97 -27.02,-29.45 -46.25,-35.02zm-22.78 -90.9c-14.9,0 -26.77,11.87 -26.77,26.77 0,14.9 11.87,26.77 26.77,26.77 14.9,0 26.77,-11.87 26.77,-26.77 0,-14.9 -11.87,-26.77 -26.77,-26.77zm0 -125.51c87.09,0 157.7,70.6 157.7,157.7 0,87.09 -70.61,157.69 -157.7,157.69 -87.09,0 -157.69,-70.61 -157.69,-157.69 0,-87.1 70.6,-157.7 157.69,-157.7zm220.84 61.43c-27.15,0 -27.15,-41.29 0,-41.29l210.45 0c27.15,0 27.15,41.29 0,41.29l-210.45 0zm0 233.83c-27.15,0 -27.15,-41.3 0,-41.3l210.45 0c27.15,0 27.15,41.3 0,41.3l-210.45 0zm0 -116.92c-27.15,0 -27.15,-41.29 0,-41.29l210.45 0c27.15,0 27.15,41.29 0,41.29l-210.45 0zm-388.29 -265.2l80.88 0 0 -82.28 -80.88 82.28z"/></g></svg>